<svg width="266" height="215" viewBox="0 0 266 215" fill="none" xmlns="http://www.w3.org/2000/svg">
<g clip-path="url(#clip0_235_1905)">
<path opacity="0.5" d="M12.6573 86.7233C2.81513 107.478 9.71665 134.48 27.9847 145.529C46.2527 156.577 73.3144 149.74 85.9483 130.538C89.0835 125.77 91.4283 120.129 90.98 114.556C90.5316 108.983 86.6746 103.656 81.3551 103.164C75.3407 102.593 69.6031 108.43 68.5129 114.738C67.4227 121.046 70.0674 127.293 73.975 131.902C78.2118 136.728 83.7512 140.11 89.9452 141.652C96.1391 143.194 102.732 142.833 108.951 140.611C122.836 135.422 132.265 121.828 142.364 110.329C164.51 85.0983 199.838 46.5432 238.526 71.2431" stroke="url(#paint0_radial_235_1905)" stroke-linecap="round" stroke-linejoin="round" stroke-dasharray="8 8"/>
<g filter="url(#filter0_d_235_1905)">
<path d="M257.852 81.8088L247.928 65.8552C247.828 65.6945 247.685 65.5655 247.515 65.4832C247.344 65.4008 247.154 65.3684 246.966 65.3898C246.778 65.4112 246.6 65.4855 246.453 65.604C246.305 65.7226 246.194 65.8805 246.133 66.0595L244.516 70.7887L249.447 77.4464L241.354 75.6727L237.702 79.0847C237.563 79.2136 237.463 79.3793 237.415 79.5626C237.367 79.7459 237.372 79.9391 237.429 80.1197C237.487 80.3003 237.594 80.4607 237.74 80.5823C237.885 80.7039 238.062 80.7815 238.25 80.8062L256.868 83.3283C257.057 83.3538 257.248 83.3253 257.421 83.2461C257.593 83.1668 257.739 83.0401 257.843 82.8808C257.946 82.7214 258.001 82.536 258.003 82.3462C258.005 82.1563 257.952 81.97 257.852 81.8088Z" fill="url(#paint1_radial_235_1905)"/>
<path d="M249.202 65.0629L249.202 65.0629C248.952 64.6613 248.593 64.3388 248.168 64.1328C247.742 63.9269 247.266 63.846 246.796 63.8994C246.327 63.9529 245.881 64.1386 245.513 64.4349C245.144 64.7313 244.867 65.1261 244.714 65.5736L244.714 65.574L243.096 70.3032L242.841 71.0486L243.31 71.6815L245.861 75.1248L241.675 74.2075L240.906 74.0389L240.33 74.5766L236.682 77.9846C236.681 77.9854 236.68 77.9862 236.679 77.9871C236.333 78.3092 236.085 78.7231 235.964 79.1807C235.844 79.6395 235.856 80.1232 236 80.5752C236.144 81.0272 236.414 81.4288 236.778 81.7331C237.141 82.0366 237.583 82.2308 238.052 82.293C238.053 82.2931 238.054 82.2933 238.055 82.2934L256.666 84.8146C256.667 84.8146 256.667 84.8146 256.667 84.8147C256.667 84.8147 256.667 84.8147 256.667 84.8147C257.137 84.8784 257.616 84.8071 258.047 84.6091C258.478 84.411 258.844 84.0943 259.102 83.6959C259.36 83.2975 259.499 82.8339 259.503 82.3594C259.507 81.885 259.376 81.4193 259.126 81.0165C259.126 81.0165 259.126 81.0164 259.126 81.0164C259.126 81.0162 259.125 81.0161 259.125 81.016L249.202 65.0629Z" stroke="white" stroke-width="3"/>
</g>
</g>
<defs>
<filter id="filter0_d_235_1905" x="230.382" y="62.3834" width="34.6211" height="31.9539" filterUnits="userSpaceOnUse" color-interpolation-filters="sRGB">
<feFlood flood-opacity="0" result="BackgroundImageFix"/>
<feColorMatrix in="SourceAlpha" type="matrix" values="0 0 0 0 0 0 0 0 0 0 0 0 0 0 0 0 0 0 127 0" result="hardAlpha"/>
<feOffset dy="4"/>
<feGaussianBlur stdDeviation="2"/>
<feColorMatrix type="matrix" values="0 0 0 0 0.529412 0 0 0 0 0.552941 0 0 0 0 0.643137 0 0 0 0.1 0"/>
<feBlend mode="normal" in2="BackgroundImageFix" result="effect1_dropShadow_235_1905"/>
<feBlend mode="normal" in="SourceGraphic" in2="effect1_dropShadow_235_1905" result="shape"/>
</filter>
<radialGradient id="paint0_radial_235_1905" cx="0" cy="0" r="1" gradientUnits="userSpaceOnUse" gradientTransform="translate(84.7897 13.8127) rotate(92.2567) scale(157.686 178.996)">
<stop stop-color="#78AEFF"/>
<stop offset="1" stop-color="#1F78FF"/>
</radialGradient>
<radialGradient id="paint1_radial_235_1905" cx="0" cy="0" r="1" gradientUnits="userSpaceOnUse" gradientTransform="translate(248.21 68.4135) rotate(100.86) scale(17.1688 17.8602)">
<stop stop-color="#78AEFF"/>
<stop offset="1" stop-color="#1F78FF"/>
</radialGradient>
<clipPath id="clip0_235_1905">
<rect width="266" height="215" fill="white"/>
</clipPath>
</defs>
</svg>
