<svg width="26" height="32" viewBox="0 0 26 32" fill="none" xmlns="http://www.w3.org/2000/svg">
<path d="M7 30.894C7 31.7192 7.99583 32.1511 8.58638 31.5746C8.59071 31.5704 8.59511 31.5661 8.59944 31.5618L9.21277 30.9484C9.79711 30.3641 10.7445 30.3641 11.3288 30.9484L11.9422 31.5618C12.5265 32.1461 13.4739 32.1461 14.0583 31.5618L14.6716 30.9484C15.2559 30.3641 16.2033 30.3641 16.7877 30.9484L17.401 31.5618C17.4053 31.5661 17.4097 31.5704 17.4141 31.5746C18.0046 32.1511 19.0004 31.7192 19.0004 30.894V16.1221H7V30.894Z" fill="url(#paint0_linear_235_1887)"/>
<path d="M10.5485 16.1221H7V30.8939C7 31.7192 7.99583 32.1511 8.58638 31.5746C8.59071 31.5703 8.59511 31.566 8.59944 31.5617L9.21277 30.9484C9.57588 30.5852 10.0792 30.4481 10.5485 30.5363V16.1221Z" fill="url(#paint1_linear_235_1887)"/>
<path d="M15.4521 16.1221V30.5363C15.9214 30.4481 16.4248 30.5852 16.7879 30.9484L17.4012 31.5617C17.4055 31.566 17.4099 31.5703 17.4143 31.5746C18.0048 32.1511 19.0006 31.7192 19.0006 30.8939V16.1221H15.4521Z" fill="url(#paint2_linear_235_1887)"/>
<path d="M15.4521 16.1221V30.5363C15.9214 30.4481 16.4248 30.5852 16.7879 30.9484L17.4012 31.5617C17.4055 31.566 17.4099 31.5703 17.4143 31.5746C18.0048 32.1511 19.0006 31.7192 19.0006 30.8939V16.1221H15.4521Z" fill="url(#paint3_linear_235_1887)"/>
<path d="M25.167 13.6747L24.0149 14.8472C23.5623 15.3079 23.3523 15.9543 23.4477 16.5929L23.6906 18.218C23.8565 19.3281 23.1018 20.3663 21.9947 20.5509L20.3747 20.821C19.7365 20.9274 19.1856 21.3279 18.8875 21.902L18.1321 23.3569C17.6142 24.3541 16.3918 24.7512 15.3868 24.2487L13.9203 23.5154C13.3412 23.2258 12.6596 23.2258 12.0806 23.5154L10.6141 24.2487C9.60904 24.7513 8.38664 24.3542 7.8688 23.3569L7.11335 21.9021C6.81525 21.3279 6.26435 20.9275 5.62623 20.8211L4.00627 20.551C2.89914 20.3664 2.14438 19.3282 2.31034 18.2181L2.55322 16.5929C2.64866 15.9543 2.43865 15.3079 1.98607 14.8473L0.833882 13.6748C0.0475603 12.8745 0.0475603 11.5918 0.833882 10.7916L1.98607 9.61907C2.43865 9.15846 2.64866 8.51206 2.55322 7.87344L2.31034 6.24828C2.14444 5.13819 2.89914 4.10001 4.00627 3.91541L5.62629 3.6453C6.26441 3.53888 6.81531 3.13844 7.11341 2.56432L7.86886 1.10945C8.3867 0.112182 9.6091 -0.284932 10.6141 0.217656L12.0806 0.950958C12.6597 1.24053 13.3413 1.24053 13.9204 0.950958L15.3869 0.217656C16.3919 -0.284932 17.6143 0.112182 18.1321 1.10945L18.8876 2.56432C19.1857 3.13844 19.7366 3.53888 20.3747 3.6453L21.9947 3.91541C23.1018 4.10001 23.8566 5.13819 23.6906 6.24828L23.4477 7.87344C23.3523 8.51206 23.5623 9.15846 24.0149 9.61907L25.1671 10.7916C25.9533 11.5918 25.9533 12.8745 25.167 13.6747Z" fill="url(#paint4_linear_235_1887)"/>
<path d="M13.0003 21.3545C18.0379 21.3545 22.1217 17.2707 22.1217 12.2331C22.1217 7.19548 18.0379 3.11169 13.0003 3.11169C7.96269 3.11169 3.87891 7.19548 3.87891 12.2331C3.87891 17.2707 7.96269 21.3545 13.0003 21.3545Z" fill="url(#paint5_linear_235_1887)"/>
<path d="M13.0001 20.0135C17.2971 20.0135 20.7805 16.5301 20.7805 12.2332C20.7805 7.93616 17.2971 4.45276 13.0001 4.45276C8.70313 4.45276 5.21973 7.93616 5.21973 12.2332C5.21973 16.5301 8.70313 20.0135 13.0001 20.0135Z" fill="url(#paint6_linear_235_1887)"/>
<g filter="url(#filter0_d_235_1887)">
<path d="M10.9196 16.4712C11.3306 16.8822 11.9974 16.8822 12.4085 16.4712L18.8424 10.0373C19.1756 9.70408 19.1756 9.16353 18.8424 8.83031L18.0414 8.02939C17.7082 7.69618 17.1678 7.69618 16.8345 8.02939L12.2676 12.5964C11.9342 12.9298 11.3938 12.9298 11.0604 12.5964L9.25781 10.7938C8.9246 10.4604 8.38405 10.4604 8.05083 10.7938L7.24991 11.5945C6.9167 11.9279 6.9167 12.4683 7.24991 12.8017L10.9196 16.4712Z" fill="white"/>
</g>
<path d="M1.98601 14.8472C2.43859 15.3079 2.6486 15.9543 2.55316 16.5929L2.31027 18.218C2.14438 19.3281 2.89907 20.3663 4.00621 20.5509L5.62616 20.821C6.26428 20.9274 6.81518 21.3278 7.11329 21.902L7.86874 23.3569C8.38657 24.3541 9.60897 24.7512 10.614 24.2487L12.0805 23.5154C12.6596 23.2258 13.3412 23.2258 13.9203 23.5154L15.3867 24.2487C16.3918 24.7512 17.6142 24.3541 18.132 23.3568L18.8874 21.9019C19.1855 21.3278 19.7364 20.9274 20.3745 20.821L21.9945 20.5508C23.1016 20.3662 23.8564 19.3281 23.6904 18.218L23.4475 16.5928C23.3521 15.9542 23.5621 15.3078 24.0147 14.8472L25.1669 13.6747C25.56 13.2745 25.7566 12.7538 25.7566 12.2331H0.244141C0.244141 12.7538 0.440721 13.2746 0.833882 13.6747L1.98601 14.8472Z" fill="url(#paint7_linear_235_1887)"/>
<defs>
<filter id="filter0_d_235_1887" x="3" y="3.77948" width="20.0918" height="17" filterUnits="userSpaceOnUse" color-interpolation-filters="sRGB">
<feFlood flood-opacity="0" result="BackgroundImageFix"/>
<feColorMatrix in="SourceAlpha" type="matrix" values="0 0 0 0 0 0 0 0 0 0 0 0 0 0 0 0 0 0 127 0" result="hardAlpha"/>
<feOffset/>
<feGaussianBlur stdDeviation="2"/>
<feComposite in2="hardAlpha" operator="out"/>
<feColorMatrix type="matrix" values="0 0 0 0 0.970833 0 0 0 0 0.3495 0 0 0 0 0 0 0 0 1 0"/>
<feBlend mode="normal" in2="BackgroundImageFix" result="effect1_dropShadow_235_1887"/>
<feBlend mode="normal" in="SourceGraphic" in2="effect1_dropShadow_235_1887" result="shape"/>
</filter>
<linearGradient id="paint0_linear_235_1887" x1="9.08565" y1="19.7891" x2="15.9274" y2="26.6309" gradientUnits="userSpaceOnUse">
<stop offset="0.03125" stop-color="white"/>
<stop offset="1" stop-color="#FF7836"/>
</linearGradient>
<linearGradient id="paint1_linear_235_1887" x1="6.96273" y1="22.9201" x2="14.2412" y2="26.4652" gradientUnits="userSpaceOnUse">
<stop stop-color="#EDF6FF"/>
<stop offset="1" stop-color="#0085FF"/>
</linearGradient>
<linearGradient id="paint2_linear_235_1887" x1="14.8383" y1="21.4907" x2="22.7442" y2="27.577" gradientUnits="userSpaceOnUse">
<stop stop-color="#00DA4A"/>
<stop offset="1" stop-color="#16B14B"/>
</linearGradient>
<linearGradient id="paint3_linear_235_1887" x1="17.2264" y1="27.7019" x2="17.2264" y2="23.7339" gradientUnits="userSpaceOnUse">
<stop stop-color="#3AFF7E" stop-opacity="0"/>
<stop offset="1" stop-color="#16B14B"/>
</linearGradient>
<linearGradient id="paint4_linear_235_1887" x1="5.27467" y1="4.50735" x2="24.8854" y2="24.118" gradientUnits="userSpaceOnUse">
<stop stop-color="#FEE45A"/>
<stop offset="1" stop-color="#FEA613"/>
</linearGradient>
<linearGradient id="paint5_linear_235_1887" x1="21.6359" y1="20.8687" x2="0.911816" y2="0.144666" gradientUnits="userSpaceOnUse">
<stop stop-color="#FEE45A"/>
<stop offset="1" stop-color="#FEA613"/>
</linearGradient>
<linearGradient id="paint6_linear_235_1887" x1="7.51877" y1="6.7518" x2="18.2514" y2="17.4844" gradientUnits="userSpaceOnUse">
<stop stop-color="#FEE45A"/>
<stop offset="1" stop-color="#FEA613"/>
</linearGradient>
<linearGradient id="paint7_linear_235_1887" x1="13.0004" y1="15.3077" x2="13.0004" y2="27.2307" gradientUnits="userSpaceOnUse">
<stop stop-color="#FEA613" stop-opacity="0"/>
<stop offset="1" stop-color="#FC5959"/>
</linearGradient>
</defs>
</svg>
