<svg width="106" height="36" viewBox="0 0 106 36" fill="none" xmlns="http://www.w3.org/2000/svg">
<g clip-path="url(#clip0_235_1877)">
<path d="M46.4983 5.52844C43.4131 5.52844 40.7686 7.60974 39.7297 10.5366C39.6667 10.6992 39.4778 11.3171 39.4778 11.3171L35.1963 30.4715H45.0187C48.3873 30.4715 51.2521 27.9675 52.0707 24.5528L56.3207 5.52844H46.4983Z" fill="#16B14B"/>
<path d="M30.1287 0C26.8231 0 24.0527 2.30894 23.2027 5.43089C23.1397 5.65854 23.0768 5.9187 23.0453 6.14634L16.3711 36H26.1935C29.5621 36 32.3955 33.5935 33.1825 30.3415L39.9511 0H30.1287Z" fill="#F27227"/>
<path d="M11.302 5.52844C8.12236 5.52844 5.38343 7.77234 4.40748 10.8943C4.376 10.9593 4.376 11.0244 4.34452 11.0894L4.18711 11.7723L0 30.4715H10.0743C13.0965 30.4715 15.6781 28.4228 16.654 25.5284L17.0633 23.7398L21.1244 5.52844H11.302Z" fill="#1169B0"/>
<path d="M9.4449 11.7723L9.28749 11.8049C8.59489 11.8049 7.93377 12.065 7.30412 12.5853C6.70597 13.0732 6.32818 13.691 6.20225 14.1788L3.93555 24.2927H4.06147C4.78556 24.2927 5.44668 24.0325 6.04484 23.5122C6.643 22.9919 7.05227 22.374 7.20968 21.6585L7.71339 19.4471H12.1838C12.8764 19.4471 13.569 19.187 14.1672 18.6667C14.7654 18.1463 15.1746 17.5284 15.332 16.813L15.3635 16.6829H8.34303L8.81526 14.6016H14.9228C15.6154 14.6016 16.2765 14.3414 16.9061 13.8536C17.5043 13.3333 17.8821 12.7154 18.0395 12L18.071 11.8699L9.4449 11.7723Z" fill="white"/>
<path d="M34.3156 12.3578C33.9378 11.9675 33.4341 11.7399 32.8045 11.7399H24.2099L21.4395 24.1952V24.2277H21.5654C22.2895 24.2277 22.9506 23.9675 23.5487 23.4472C24.1469 22.9269 24.5562 22.309 24.7136 21.5935L25.2173 19.3821H31.1674C31.86 19.3821 32.4896 19.2846 33.0878 18.7968C33.686 18.309 34.1267 17.496 34.2841 16.748L34.8193 14.4391C34.8508 14.2439 34.8823 14.0813 34.8823 13.8862C34.9138 13.2683 34.7249 12.7805 34.3156 12.3578ZM31.6396 16.6179H25.8469L26.3192 14.5366H32.1119L31.6396 16.6179Z" fill="white"/>
<path d="M51.8199 12.3902C51.4421 12 50.9384 11.7723 50.3087 11.7723H46.5309H46.279H41.2419L41.2104 11.8699C41.1789 12.065 41.1475 12.2601 41.1475 12.4227C41.1475 13.0406 41.3364 13.5284 41.7141 13.9512C42.0919 14.3414 42.5956 14.5691 43.2253 14.5691H45.1142L42.9419 24.2601H43.0679C43.792 24.2601 44.4531 24 45.0512 23.4797C45.6494 22.9593 46.0587 22.3414 46.2161 21.626L47.7902 14.5691H52.2606L52.2921 14.4715C52.3236 14.2764 52.3551 14.0813 52.3551 13.9187C52.3865 13.2683 52.1976 12.7805 51.8199 12.3902Z" fill="white"/>
<path d="M53.582 28.3252C53.582 27.1544 54.5265 26.1788 55.6598 26.1788C56.7932 26.1788 57.7377 27.1544 57.7377 28.3252C57.7377 29.4959 56.7932 30.4715 55.6598 30.4715C54.5265 30.4715 53.582 29.4959 53.582 28.3252ZM57.2339 28.3252C57.2339 27.317 56.5413 26.6016 55.6598 26.6016C54.7783 26.6016 54.0857 27.317 54.0857 28.3252C54.0857 29.3333 54.7783 30.0488 55.6598 30.0488C56.5413 30.0488 57.2339 29.3333 57.2339 28.3252ZM54.8728 27.0894H55.7543C56.321 27.0894 56.6358 27.2845 56.6358 27.8049C56.6358 28.2276 56.4154 28.4227 56.0061 28.4553L56.6358 29.5284H56.195L55.5969 28.4878H55.345V29.5284H54.9043V27.0894H54.8728ZM55.3135 28.1301H55.6913C55.9432 28.1301 56.1636 28.0975 56.1636 27.7723C56.1636 27.4796 55.9117 27.4471 55.6913 27.4471H55.3135V28.1301Z" fill="#1169B0"/>
<path d="M65.42 14.8374V23.1951H63.9718V14.8374H61.8311V13.5691H67.5608V14.8374H65.42Z" fill="#1169B0"/>
<path d="M74.046 19.5853L69.4497 20.2357C69.6071 21.5365 70.2997 22.1869 71.5589 22.1869C72.3145 22.1869 72.9441 22.0569 73.4793 21.7642L73.8886 22.8373C73.259 23.1625 72.4719 23.3577 71.4645 23.3577C70.3941 23.3577 69.5441 23.0325 68.9459 22.3495C68.3478 21.6991 68.0645 20.7886 68.0645 19.6178C68.0645 18.5121 68.3478 17.6341 68.9145 16.9512C69.4811 16.2682 70.2367 15.9105 71.2126 15.9105C72.0941 15.9105 72.8182 16.2032 73.3219 16.756C73.8256 17.3089 74.0775 18.0894 74.0775 19.065C74.046 19.2601 74.046 19.4552 74.046 19.5853ZM72.7238 18.8048C72.7238 17.5691 72.1886 16.9512 71.1812 16.9512C70.646 16.9512 70.2052 17.1463 69.8904 17.5691C69.5441 17.9918 69.3867 18.5447 69.3867 19.2926L72.7238 18.8048Z" fill="#1169B0"/>
<path d="M75.0537 23.1951V12.7886H76.4704V23.1951H75.0537Z" fill="#1169B0"/>
<path d="M83.4591 19.5853L78.8627 20.2357C79.0202 21.5365 79.7128 22.1869 80.9721 22.1869C81.7276 22.1869 82.3573 22.0569 82.8925 21.7642L83.3017 22.8373C82.6721 23.1625 81.885 23.3577 80.8776 23.3577C79.8072 23.3577 78.9572 23.0325 78.359 22.3495C77.7609 21.6991 77.4775 20.7886 77.4775 19.6178C77.4775 18.5121 77.7609 17.6341 78.3276 16.9512C78.8942 16.2682 79.6498 15.9105 80.6257 15.9105C81.5072 15.9105 82.2313 16.2032 82.735 16.756C83.2388 17.3089 83.4906 18.0894 83.4906 19.065C83.4591 19.2601 83.4591 19.4552 83.4591 19.5853ZM82.1054 18.8048C82.1054 17.5691 81.5702 16.9512 80.5628 16.9512C80.0276 16.9512 79.5868 17.1463 79.272 17.5691C78.9257 17.9918 78.7683 18.5447 78.7683 19.2926L82.1054 18.8048Z" fill="#1169B0"/>
<path d="M89.0004 22.8373C88.5281 23.1626 87.93 23.3252 87.2374 23.3252C86.3873 23.3252 85.6947 23.0325 85.1281 22.4471C84.4984 21.7642 84.1836 20.8211 84.1836 19.6178C84.1836 18.4146 84.4984 17.4715 85.1281 16.7886C85.6633 16.2032 86.3873 15.9105 87.2374 15.9105C87.9615 15.9105 88.5281 16.0731 89.0004 16.3983L88.5281 17.439C88.2133 17.2113 87.8355 17.0813 87.3948 17.0813C86.8911 17.0813 86.4818 17.2764 86.167 17.6666C85.8207 18.1219 85.6318 18.7398 85.6318 19.5853C85.6318 20.3983 85.8207 21.0487 86.1984 21.504C86.5133 21.9268 86.9225 22.1219 87.4263 22.1219C87.867 22.1219 88.2448 21.9918 88.5596 21.7642L89.0004 22.8373Z" fill="#1169B0"/>
<path d="M94.8556 22.252C94.3204 22.9674 93.5649 23.3251 92.5889 23.3251C91.6445 23.3251 90.8889 22.9674 90.3222 22.252C89.787 21.569 89.5352 20.691 89.5352 19.5853C89.5352 18.4796 89.787 17.6016 90.3222 16.9186C90.8574 16.2032 91.613 15.8455 92.5889 15.8455C93.5334 15.8455 94.2889 16.2032 94.8556 16.9186C95.3908 17.6016 95.6427 18.4796 95.6427 19.5853C95.6427 20.691 95.3908 21.6016 94.8556 22.252ZM93.8167 17.7316C93.5334 17.2764 93.1241 17.0487 92.5889 17.0487C92.0537 17.0487 91.6445 17.2764 91.3611 17.7316C91.0778 18.1869 90.9518 18.8048 90.9518 19.5853C90.9518 20.3658 91.0778 20.9837 91.3611 21.439C91.6445 21.8942 92.0537 22.1544 92.5889 22.1544C93.1241 22.1544 93.5334 21.9268 93.8167 21.439C94.1 20.9837 94.226 20.3658 94.226 19.5853C94.226 18.8048 94.1 18.1869 93.8167 17.7316Z" fill="#1169B0"/>
<path d="M104.616 23.195V18.3495C104.616 17.9267 104.49 17.634 104.269 17.4064C104.017 17.1787 103.703 17.0812 103.293 17.0812C102.727 17.0812 102.317 17.2438 102.034 17.569V23.2275H100.617V18.2194C100.617 17.8617 100.491 17.569 100.24 17.3739C99.9877 17.1787 99.6414 17.0812 99.2007 17.0812C98.7284 17.0812 98.3506 17.1462 98.0043 17.3088V23.2275H96.6191V16.3983C97.4062 16.0731 98.2247 15.8779 99.1062 15.8779C100.114 15.8779 100.838 16.1381 101.31 16.6584C101.877 16.1381 102.664 15.8779 103.608 15.8779C104.332 15.8779 104.93 16.0731 105.371 16.4958C105.812 16.9186 106.001 17.4714 106.001 18.1869V23.1625H104.616V23.195Z" fill="#1169B0"/>
</g>
<defs>
<clipPath id="clip0_235_1877">
<rect width="106" height="36" fill="white"/>
</clipPath>
</defs>
</svg>
