<svg width="20" height="20" viewBox="0 0 20 20" fill="none" xmlns="http://www.w3.org/2000/svg">
<path d="M10.4166 18.3335H3.39993C2.43327 18.3335 1.6416 17.5585 1.6416 16.6085V4.24179C1.6416 2.05846 3.2666 1.06679 5.25827 2.04179L8.95827 3.85846C9.75827 4.25013 10.4166 5.29179 10.4166 6.17513V18.3335Z" stroke="white" stroke-width="1.5" stroke-linecap="round" stroke-linejoin="round"/>
<path d="M18.3087 12.55V15.7C18.3087 17.5 17.4753 18.3333 15.6753 18.3333H10.417V8.68335L10.8087 8.76668L14.5587 9.60835L16.2503 9.98335C17.3503 10.225 18.2503 10.7917 18.3003 12.3917C18.3087 12.4417 18.3087 12.4917 18.3087 12.55Z" stroke="white" stroke-width="1.5" stroke-linecap="round" stroke-linejoin="round"/>
<path d="M4.58301 7.5H7.47467" stroke="white" stroke-width="1.5" stroke-linecap="round" stroke-linejoin="round"/>
<path d="M4.58301 10.8335H7.47467" stroke="white" stroke-width="1.5" stroke-linecap="round" stroke-linejoin="round"/>
<path d="M14.5586 9.60851V12.2918C14.5586 13.3252 13.7169 14.1668 12.6836 14.1668C11.6503 14.1668 10.8086 13.3252 10.8086 12.2918V8.76685L14.5586 9.60851Z" stroke="white" stroke-width="1.5" stroke-linecap="round" stroke-linejoin="round"/>
<path d="M18.3003 12.3917C18.2503 13.3751 17.4336 14.1667 16.4336 14.1667C15.4003 14.1667 14.5586 13.3251 14.5586 12.2917V9.6084L16.2503 9.9834C17.3503 10.2251 18.2503 10.7917 18.3003 12.3917Z" stroke="white" stroke-width="1.5" stroke-linecap="round" stroke-linejoin="round"/>
</svg>
