<svg width="59" height="37" viewBox="0 0 59 37" fill="none" xmlns="http://www.w3.org/2000/svg">
<path d="M2.04691 24.7886C6.61378 34.3616 16.7676 36.7107 18.1163 37.0001L16.5728 33.3056C15.4864 30.7065 16.695 27.6898 19.3083 26.6174C24.4266 24.517 28.0065 19.4557 27.9021 13.5746C27.7696 6.08804 21.5841 0.0216329 14.0703 5.78503e-05C6.94872 -0.0202481 1.07011 5.30753 0.252504 12.1811C-0.0875282 14.4528 -0.493784 19.4621 2.04691 24.7886Z" fill="#AEBAD5"/>
<path d="M33.1426 24.7886C37.7095 34.3616 47.8633 36.7107 49.212 37.0001L47.6685 33.3056C46.5821 30.7065 47.7907 27.6898 50.404 26.6174C55.5223 24.517 59.1022 19.4557 58.9978 13.5746C58.8641 6.08804 52.6798 0.0216329 45.1647 5.78503e-05C38.0431 -0.0202481 32.1645 5.30753 31.3469 12.1811C31.0082 14.4528 30.6006 19.4621 33.1426 24.7886Z" fill="#AEBAD5"/>
</svg>
