<svg width="32" height="32" viewBox="0 0 32 32" fill="none" xmlns="http://www.w3.org/2000/svg">
<path d="M28.25 17.5C30.3177 17.5 32 15.8177 32 13.75C32 11.6823 30.3177 10 28.25 10H3.75C1.68225 10 0 11.6823 0 13.75C0 15.3796 1.04513 16.769 2.5 17.285V25.75C2.5 29.1963 5.30375 32 8.75 32H23.25C26.6963 32 29.5 29.1963 29.5 25.75V21.25C29.5 20.5596 28.9404 20 28.25 20C27.5596 20 27 20.5596 27 21.25V25.75C27 27.8177 25.3177 29.5 23.25 29.5H8.75C6.68225 29.5 5 27.8177 5 25.75V17.5H28.25ZM3.75 12.5H28.25C28.9393 12.5 29.5 13.0608 29.5 13.75C29.5 14.4392 28.9393 15 28.25 15H3.75C3.06075 15 2.5 14.4392 2.5 13.75C2.5 13.0608 3.06075 12.5 3.75 12.5Z" fill="url(#paint0_radial_502_3124)"/>
<path d="M21 0C19.8258 0 18.7038 0.561312 17.9987 1.50156L16 4.16656L14.0013 1.5015C13.2962 0.561312 12.1743 0 11 0C8.93225 0 7.25 1.68225 7.25 3.75C7.25 5.81775 8.93225 7.5 11 7.5C11.6904 7.5 12.25 6.94037 12.25 6.25C12.25 5.55963 11.6904 5 11 5C10.3108 5 9.75 4.43925 9.75 3.75C9.75 3.06075 10.3108 2.5 11 2.5C11.3973 2.5 11.7623 2.68281 12.0013 3.0015C12.0131 3.01712 15.1602 7.21362 15 7C15.5336 7.7115 16.5316 7.65294 17.0146 6.98056L19.9987 3.0015C20.2377 2.68281 20.6027 2.5 21 2.5C21.6892 2.5 22.25 3.06075 22.25 3.75C22.25 4.43925 21.6892 5 21 5C20.3096 5 19.75 5.55963 19.75 6.25C19.75 6.94037 20.3096 7.5 21 7.5C23.0677 7.5 24.75 5.81775 24.75 3.75C24.75 1.68225 23.0677 0 21 0Z" fill="white"/>
<path d="M16 20C15.3096 20 14.75 20.5596 14.75 21.25V25.75C14.75 26.4404 15.3096 27 16 27C16.6904 27 17.25 26.4404 17.25 25.75V21.25C17.25 20.5596 16.6904 20 16 20Z" fill="white"/>
<defs>
<radialGradient id="paint0_radial_502_3124" cx="0" cy="0" r="1" gradientUnits="userSpaceOnUse" gradientTransform="translate(5.14286 12.5536) rotate(60.8249) scale(22.272 28.3359)">
<stop stop-color="#FFBD70"/>
<stop offset="1" stop-color="#F58200"/>
</radialGradient>
</defs>
</svg>
