<svg width="20" height="20" viewBox="0 0 20 20" fill="none" xmlns="http://www.w3.org/2000/svg">
<g clip-path="url(#clip0_593_2520)">
<path d="M9.67078 18.3587L9.67145 18.3593C9.76523 18.4413 9.88239 18.4832 10 18.4832C10.1176 18.4832 10.2348 18.4413 10.3286 18.3593L10.3292 18.3587C10.4555 18.2471 11.9687 16.8975 13.4514 14.9512C14.93 13.0105 16.4 10.4487 16.4 7.9165C16.4 4.38712 13.5287 1.5165 10 1.5165C6.47133 1.5165 3.6 4.38712 3.6 7.9165C3.6 10.4487 5.07002 13.0105 6.54856 14.9512C8.03133 16.8975 9.54449 18.2471 9.67078 18.3587ZM4.59444 7.9165C4.59444 4.93615 7.01965 2.51095 10 2.51095C12.9804 2.51095 15.4056 4.93615 15.4056 7.9165C15.4056 9.92284 14.309 12.036 13.059 13.7883C11.8859 15.4329 10.5935 16.738 10 17.3061C9.40646 16.738 8.11406 15.4329 6.94095 13.7883C5.69102 12.036 4.59444 9.92284 4.59444 7.9165Z" fill="white" stroke="white" stroke-width="0.3"/>
<path d="M6.37734 7.91656C6.37734 9.91398 8.00214 11.5388 9.99957 11.5388C11.997 11.5388 13.6218 9.91398 13.6218 7.91656C13.6218 5.91913 11.997 4.29434 9.99957 4.29434C8.00214 4.29434 6.37734 5.91913 6.37734 7.91656ZM7.37179 7.91656C7.37179 6.46746 8.55046 5.28878 9.99957 5.28878C11.4487 5.28878 12.6273 6.46746 12.6273 7.91656C12.6273 9.36566 11.4487 10.5443 9.99957 10.5443C8.55046 10.5443 7.37179 9.36566 7.37179 7.91656Z" fill="white" stroke="white" stroke-width="0.3"/>
</g>
<defs>
<clipPath id="clip0_593_2520">
<rect width="13.3333" height="18.3333" fill="white" transform="translate(3.33301 0.833252)"/>
</clipPath>
</defs>
</svg>
