<svg width="118" height="40" viewBox="0 0 118 40" fill="none" xmlns="http://www.w3.org/2000/svg">
<g clip-path="url(#clip0_593_2487)">
<path d="M51.6653 6.14282C48.2372 6.14282 45.2989 8.45538 44.1445 11.7074C44.0746 11.8881 43.8647 12.5746 43.8647 12.5746L39.1074 33.8574H50.0212C53.7641 33.8574 56.9473 31.0751 57.8567 27.281L62.579 6.14282H51.6653Z" fill="white"/>
<path d="M33.4757 0C29.8028 0 26.7246 2.56549 25.7801 6.03433C25.7102 6.28726 25.6402 6.57633 25.6052 6.82927L18.1895 40H29.1032C32.8461 40 35.9943 37.3261 36.8688 33.7127L44.3895 0H33.4757Z" fill="white"/>
<path d="M12.5578 6.14282C9.02485 6.14282 5.98159 8.63605 4.89721 12.1049C4.86223 12.1771 4.86223 12.2494 4.82725 12.3217L4.65235 13.0805L0 33.8574H11.1936C14.5517 33.8574 17.4201 31.5809 18.5044 28.365L18.9592 26.3777L23.4716 6.14282H12.5578Z" fill="white"/>
<path d="M10.4946 13.0803L10.3197 13.1165C9.55009 13.1165 8.81551 13.4055 8.11591 13.9837C7.45129 14.5257 7.03153 15.2122 6.89161 15.7542L4.37305 26.9918H4.51297C5.31751 26.9918 6.05209 26.7027 6.71671 26.1246C7.38133 25.5465 7.83607 24.8599 8.01097 24.065L8.57065 21.6079H13.5378C14.3074 21.6079 15.0769 21.3188 15.7416 20.7407C16.4062 20.1625 16.8609 19.476 17.0358 18.681L17.0708 18.5365H9.27025L9.79495 16.224H16.5811C17.3506 16.224 18.0852 15.9349 18.7848 15.3929C19.4494 14.8147 19.8692 14.1282 20.0441 13.3333L20.0791 13.1887L10.4946 13.0803Z" fill="#101426"/>
<path d="M38.1281 13.7307C37.7084 13.2971 37.1487 13.0442 36.4491 13.0442H26.8995L23.8213 26.8834V26.9195H23.9612C24.7657 26.9195 25.5003 26.6305 26.165 26.0523C26.8296 25.4742 27.2843 24.7876 27.4592 23.9927L28.0189 21.5356H34.6301C35.3997 21.5356 36.0993 21.4272 36.7639 20.8852C37.4285 20.3432 37.9182 19.4399 38.0931 18.6088L38.6878 16.0433C38.7228 15.8265 38.7578 15.6458 38.7578 15.429C38.7927 14.7425 38.5829 14.2005 38.1281 13.7307ZM35.1548 18.4642H28.7185L29.2432 16.1517H35.6795L35.1548 18.4642Z" fill="#101426"/>
<path d="M57.577 13.7669C57.1572 13.3333 56.5975 13.0803 55.8979 13.0803H51.7003H51.4205H45.8237L45.7887 13.1887C45.7537 13.4055 45.7188 13.6223 45.7188 13.803C45.7188 14.4895 45.9286 15.0315 46.3484 15.5013C46.7682 15.9349 47.3278 16.1878 48.0274 16.1878H50.1262L47.7126 26.9557H47.8525C48.6571 26.9557 49.3917 26.6666 50.0563 26.0885C50.7209 25.5103 51.1756 24.8238 51.3505 24.0288L53.0995 16.1878H58.0667L58.1017 16.0794C58.1367 15.8626 58.1716 15.6458 58.1716 15.4651C58.2066 14.7425 57.9967 14.2005 57.577 13.7669Z" fill="#101426"/>
<path d="M59.5361 31.4725C59.5361 30.1717 60.5855 29.0876 61.8448 29.0876C63.1041 29.0876 64.1535 30.1717 64.1535 31.4725C64.1535 32.7733 63.1041 33.8573 61.8448 33.8573C60.5855 33.8573 59.5361 32.7733 59.5361 31.4725ZM63.5938 31.4725C63.5938 30.3523 62.8243 29.5574 61.8448 29.5574C60.8654 29.5574 60.0958 30.3523 60.0958 31.4725C60.0958 32.5926 60.8654 33.3876 61.8448 33.3876C62.8243 33.3876 63.5938 32.5926 63.5938 31.4725ZM60.9703 30.0994H61.9498C62.5794 30.0994 62.9292 30.3162 62.9292 30.8943C62.9292 31.3641 62.6843 31.5809 62.2296 31.617L62.9292 32.8094H62.4395L61.7749 31.6531H61.495V32.8094H61.0053V30.0994H60.9703ZM61.46 31.2557H61.8798C62.1596 31.2557 62.4045 31.2195 62.4045 30.8582C62.4045 30.533 62.1247 30.4969 61.8798 30.4969H61.46V31.2557Z" fill="white"/>
<path d="M72.6889 16.4859V25.7722H71.0798V16.4859H68.7012V15.0767H75.0675V16.4859H72.6889Z" fill="white"/>
<path d="M82.2731 21.7613L77.1661 22.484C77.341 23.9293 78.1105 24.652 79.5097 24.652C80.3492 24.652 81.0488 24.5075 81.6435 24.1823L82.0982 25.3747C81.3986 25.736 80.5241 25.9528 79.4048 25.9528C78.2155 25.9528 77.271 25.5915 76.6064 24.8327C75.9418 24.11 75.627 23.0983 75.627 21.7975C75.627 20.5689 75.9418 19.5933 76.5714 18.8345C77.201 18.0757 78.0406 17.6782 79.1249 17.6782C80.1044 17.6782 80.9089 18.0034 81.4686 18.6177C82.0283 19.232 82.3081 20.0992 82.3081 21.1832C82.2731 21.4 82.2731 21.6168 82.2731 21.7613ZM80.804 20.8941C80.804 19.521 80.2093 18.8345 79.09 18.8345C78.4953 18.8345 78.0056 19.0513 77.6558 19.521C77.271 19.9908 77.0961 20.6051 77.0961 21.4361L80.804 20.8941Z" fill="white"/>
<path d="M83.3926 25.7723V14.2095H84.9667V25.7723H83.3926Z" fill="white"/>
<path d="M92.7322 21.7613L87.6251 22.484C87.8 23.9293 88.5695 24.652 89.9687 24.652C90.8083 24.652 91.5079 24.5075 92.1025 24.1823L92.5573 25.3747C91.8577 25.736 90.9832 25.9528 89.8638 25.9528C88.6745 25.9528 87.73 25.5915 87.0654 24.8327C86.4008 24.11 86.0859 23.0983 86.0859 21.7975C86.0859 20.5689 86.4008 19.5933 87.0304 18.8345C87.66 18.0757 88.4996 17.6782 89.584 17.6782C90.5634 17.6782 91.3679 18.0034 91.9276 18.6177C92.4873 19.232 92.7671 20.0992 92.7671 21.1832C92.7322 21.4 92.7322 21.6168 92.7322 21.7613ZM91.228 20.8941C91.228 19.521 90.6333 18.8345 89.514 18.8345C88.9193 18.8345 88.4296 19.0513 88.0798 19.521C87.695 19.9908 87.5201 20.6051 87.5201 21.4361L91.228 20.8941Z" fill="white"/>
<path d="M98.8891 25.3747C98.3644 25.736 97.6997 25.9167 96.9302 25.9167C95.9857 25.9167 95.2162 25.5915 94.5865 24.9411C93.8869 24.1823 93.5371 23.1344 93.5371 21.7975C93.5371 20.4605 93.8869 19.4126 94.5865 18.6538C95.1812 18.0034 95.9857 17.6782 96.9302 17.6782C97.7347 17.6782 98.3644 17.8589 98.8891 18.2202L98.3644 19.3765C98.0146 19.1236 97.5948 18.979 97.1051 18.979C96.5454 18.979 96.0907 19.1958 95.7409 19.6294C95.3561 20.1353 95.1462 20.8219 95.1462 21.7613C95.1462 22.6647 95.3561 23.3873 95.7758 23.8932C96.1256 24.363 96.5804 24.5798 97.1401 24.5798C97.6298 24.5798 98.0495 24.4352 98.3993 24.1823L98.8891 25.3747Z" fill="white"/>
<path d="M105.395 24.7243C104.8 25.5192 103.961 25.9167 102.876 25.9167C101.827 25.9167 100.988 25.5192 100.358 24.7243C99.7632 23.9655 99.4834 22.9899 99.4834 21.7613C99.4834 20.5328 99.7632 19.5572 100.358 18.7984C100.953 18.0034 101.792 17.606 102.876 17.606C103.926 17.606 104.765 18.0034 105.395 18.7984C105.99 19.5572 106.27 20.5328 106.27 21.7613C106.27 22.9899 105.99 24.0016 105.395 24.7243ZM104.241 19.7017C103.926 19.1958 103.471 18.9429 102.876 18.9429C102.282 18.9429 101.827 19.1958 101.512 19.7017C101.197 20.2076 101.057 20.8941 101.057 21.7613C101.057 22.6285 101.197 23.3151 101.512 23.821C101.827 24.3268 102.282 24.6159 102.876 24.6159C103.471 24.6159 103.926 24.363 104.241 23.821C104.555 23.3151 104.695 22.6285 104.695 21.7613C104.695 20.8941 104.555 20.2076 104.241 19.7017Z" fill="white"/>
<path d="M116.239 25.7722V20.3883C116.239 19.9185 116.099 19.5933 115.855 19.3404C115.575 19.0874 115.225 18.979 114.77 18.979C114.141 18.979 113.686 19.1597 113.371 19.521V25.8083H111.797V20.2437C111.797 19.8462 111.657 19.521 111.377 19.3042C111.097 19.0874 110.713 18.979 110.223 18.979C109.698 18.979 109.278 19.0513 108.894 19.232V25.8083H107.354V18.2202C108.229 17.8589 109.138 17.6421 110.118 17.6421C111.237 17.6421 112.042 17.9312 112.567 18.5093C113.196 17.9312 114.071 17.6421 115.12 17.6421C115.925 17.6421 116.589 17.8589 117.079 18.3286C117.569 18.7984 117.779 19.4126 117.779 20.2076V25.736H116.239V25.7722Z" fill="white"/>
</g>
<defs>
<clipPath id="clip0_593_2487">
<rect width="117.778" height="40" fill="white"/>
</clipPath>
</defs>
</svg>
