<svg width="32" height="32" viewBox="0 0 32 32" fill="none" xmlns="http://www.w3.org/2000/svg">
<path d="M6.25 20.4082H10C10.6904 20.4082 11.25 19.8486 11.25 19.1582C11.25 18.4678 10.6904 17.9082 10 17.9082H6.25C5.55963 17.9082 5 18.4678 5 19.1582C5 19.8486 5.55963 20.4082 6.25 20.4082Z" fill="white"/>
<path d="M6.25 15.4082H10C10.6904 15.4082 11.25 14.8486 11.25 14.1582C11.25 13.4678 10.6904 12.9082 10 12.9082H6.25C5.55963 12.9082 5 13.4678 5 14.1582C5 14.8486 5.55963 15.4082 6.25 15.4082Z" fill="white"/>
<path d="M13.5898 19.1582C13.5898 19.8485 14.1495 20.4082 14.8398 20.4082C17.4537 20.4082 19.911 19.3903 21.7593 17.542L30.9005 8.39991C32.366 6.93447 32.3663 4.56228 30.9005 3.09659C29.4385 1.63447 27.0594 1.63447 25.5972 3.09659L16.456 12.2387C14.6078 14.087 13.5898 16.5443 13.5898 19.1582ZM27.3651 4.86441C27.8523 4.37703 28.6455 4.37703 29.1328 4.86441C29.6213 5.35278 29.6215 6.14359 29.1328 6.63216L19.9915 15.7743C18.9465 16.8193 17.64 17.5077 16.2195 17.7785C16.4903 16.3581 17.1788 15.0515 18.2237 14.0065L27.3651 4.86441Z" fill="url(#paint0_radial_502_3164)"/>
<path d="M3.75 30.4081C4.6735 30.4081 5.56112 30.0693 6.2495 29.4538L7.97744 27.9081H20.75C24.1963 27.9081 27 25.1044 27 21.6581V18.8542C27 18.1638 26.4404 17.6042 25.75 17.6042C25.0596 17.6042 24.5 18.1638 24.5 18.8542V21.6581C24.5 23.7259 22.8177 25.4081 20.75 25.4081H7.5C7.1925 25.4081 6.89581 25.5215 6.66663 25.7265L4.583 27.5903C4.35369 27.7953 4.05788 27.9081 3.75 27.9081C3.06075 27.9081 2.5 27.3474 2.5 26.6581V11.6581C2.5 9.59039 4.18225 7.90814 6.25 7.90814H16.7343C17.4247 7.90814 17.9843 7.34852 17.9843 6.65814C17.9843 5.96777 17.4247 5.40814 16.7343 5.40814H6.25C2.80369 5.40814 0 8.21189 0 11.6581V26.6581C0 28.7259 1.68225 30.4081 3.75 30.4081Z" fill="url(#paint1_radial_502_3164)"/>
<defs>
<radialGradient id="paint0_radial_502_3164" cx="0" cy="0" r="1" gradientUnits="userSpaceOnUse" gradientTransform="translate(16.5486 4.13666) rotate(68.9995) scale(17.4292 17.4304)">
<stop stop-color="#FFBD70"/>
<stop offset="1" stop-color="#F58200"/>
</radialGradient>
<radialGradient id="paint1_radial_502_3164" cx="0" cy="0" r="1" gradientUnits="userSpaceOnUse" gradientTransform="translate(4.33928 8.30993) rotate(67.4838) scale(23.9217 25.295)">
<stop stop-color="#FFBD70"/>
<stop offset="1" stop-color="#F58200"/>
</radialGradient>
</defs>
</svg>
