<svg width="92" height="60" viewBox="0 0 92 60" fill="none" xmlns="http://www.w3.org/2000/svg">
<g clip-path="url(#clip0_332_2645)">
<path opacity="0.5" d="M8.99965 24C5.96561 30.4677 5.46169 35.2404 11.0932 38.6834C16.7247 42.1264 25.067 39.9958 28.9617 34.0119C29.9282 32.5262 30.651 30.7682 30.5128 29.0316C30.3746 27.2949 29.1856 25.6346 27.5457 25.4815C25.6917 25.3033 23.9229 27.1226 23.5869 29.0882C23.2508 31.0539 24.0661 33.0008 25.2707 34.437C26.5767 35.9408 28.2844 36.9947 30.1938 37.4754C32.1032 37.956 34.1354 37.8435 36.0527 37.151C40.333 35.5338 43.2398 31.2978 46.3529 27.7142C53.18 19.8516 59.5736 9.30282 71.5 17" stroke="url(#paint0_radial_332_2645)" stroke-linecap="round" stroke-linejoin="round" stroke-dasharray="5 5"/>
<g filter="url(#filter0_d_332_2645)">
<path d="M83.7935 24.2403L77.2288 13.5719C77.1627 13.4645 77.0678 13.3782 76.9551 13.3231C76.8425 13.268 76.7166 13.2464 76.5923 13.2607C76.468 13.275 76.3502 13.3246 76.2526 13.4039C76.1551 13.4832 76.0818 13.5888 76.0413 13.7085L74.9712 16.871L78.2337 21.3231L72.8799 20.137L70.4638 22.4186C70.3718 22.5048 70.306 22.6156 70.2741 22.7382C70.2422 22.8608 70.2455 22.99 70.2835 23.1107C70.3216 23.2315 70.3929 23.3388 70.4891 23.4201C70.5853 23.5014 70.7024 23.5533 70.8267 23.5698L83.1428 25.2564C83.2673 25.2734 83.3939 25.2544 83.5081 25.2014C83.6222 25.1484 83.719 25.0637 83.7872 24.9571C83.8555 24.8505 83.8923 24.7266 83.8934 24.5996C83.8945 24.4727 83.8598 24.348 83.7935 24.2403Z" fill="url(#paint1_radial_332_2645)"/>
<path d="M78.0739 13.0445L78.0739 13.0445C77.9079 12.7748 77.6695 12.558 77.3863 12.4195C77.103 12.281 76.7872 12.2268 76.4756 12.2626C76.1641 12.2985 75.8697 12.4228 75.6263 12.6206C75.383 12.8183 75.2002 13.0817 75.0991 13.3802L75.099 13.3805L74.029 16.543L73.8604 17.0413L74.1717 17.4661L75.8597 19.7696L73.0896 19.1559L72.5788 19.0427L72.1981 19.4023L69.7848 21.6813C69.7843 21.6818 69.7837 21.6823 69.7831 21.6829C69.5544 21.8978 69.3908 22.1739 69.3113 22.4792C69.2315 22.7854 69.2395 23.1088 69.335 23.4117C69.4305 23.7147 69.6096 23.9845 69.8517 24.1891C70.0931 24.3931 70.3867 24.5235 70.6982 24.5654C70.6991 24.5655 70.7 24.5656 70.7009 24.5657L83.0125 26.2517C83.0126 26.2517 83.0127 26.2517 83.0129 26.2517C83.3251 26.2945 83.6422 26.2466 83.9272 26.1142C84.2124 25.9818 84.4539 25.7703 84.624 25.5047C84.7941 25.239 84.8861 24.9297 84.8888 24.6125C84.8916 24.2954 84.8051 23.9833 84.6386 23.7129C84.6385 23.7128 84.6384 23.7127 84.6384 23.7125L78.0739 13.0445Z" stroke="white" stroke-width="2"/>
</g>
</g>
<defs>
<filter id="filter0_d_332_2645" x="64.2617" y="11.2474" width="25.623" height="24.024" filterUnits="userSpaceOnUse" color-interpolation-filters="sRGB">
<feFlood flood-opacity="0" result="BackgroundImageFix"/>
<feColorMatrix in="SourceAlpha" type="matrix" values="0 0 0 0 0 0 0 0 0 0 0 0 0 0 0 0 0 0 127 0" result="hardAlpha"/>
<feOffset dy="4"/>
<feGaussianBlur stdDeviation="2"/>
<feColorMatrix type="matrix" values="0 0 0 0 0.529412 0 0 0 0 0.552941 0 0 0 0 0.643137 0 0 0 0.1 0"/>
<feBlend mode="normal" in2="BackgroundImageFix" result="effect1_dropShadow_332_2645"/>
<feBlend mode="normal" in="SourceGraphic" in2="effect1_dropShadow_332_2645" result="shape"/>
</filter>
<radialGradient id="paint0_radial_332_2645" cx="0" cy="0" r="1" gradientUnits="userSpaceOnUse" gradientTransform="translate(29.7741 1.55769) rotate(93.5393) scale(45.4115 48.9298)">
<stop stop-color="#78AEFF"/>
<stop offset="1" stop-color="#1F78FF"/>
</radialGradient>
<radialGradient id="paint1_radial_332_2645" cx="0" cy="0" r="1" gradientUnits="userSpaceOnUse" gradientTransform="translate(77.4154 15.2827) rotate(100.746) scale(11.4766 11.8192)">
<stop stop-color="#78AEFF"/>
<stop offset="1" stop-color="#1F78FF"/>
</radialGradient>
<clipPath id="clip0_332_2645">
<rect width="92" height="60" fill="white"/>
</clipPath>
</defs>
</svg>
